<svg width="300" height="204" version="1.1" xmlns="http://www.w3.org/2000/svg" desc="Created with imagetracer.js version 1.2.6" ><path fill="rgb(0,0,0)" stroke="rgb(0,0,0)" stroke-width="1" opacity="0" d="M 0 0 L 300 0 L 300 204 L 0 204 L 0 0 Z M 8 5 L 5 8 L 5 102 L 7 103 L 98 103 L 102 102 L 101 106 L 101 197 L 102 199 L 191 199 L 192 200 L 197 199 L 199 197 L 199 103 L 201 103 L 292 103 L 295 101 L 295 7 L 294 5 L 200 5 L 199 6 L 197 5 L 104 5 L 103 6 L 102 5 L 8 5 Z " /><path fill="rgb(175,0,253)" stroke="rgb(175,0,253)" stroke-width="1" opacity="1" d="M 63.5 39 L 63 40.5 Q 63.6 43.3 57.5 42 L 57.5 41 Q 62.5 42 63.5 39 Z " /><path fill="rgb(175,0,253)" stroke="rgb(175,0,253)" stroke-width="1" opacity="1" d="M 159.5 39 L 159 40.5 Q 159.6 43.3 153.5 42 L 153.5 41 Q 158.5 42 159.5 39 Z " /><path fill="rgb(175,0,253)" stroke="rgb(175,0,253)" stroke-width="1" opacity="1" d="M 255.5 39 L 255 40.5 Q 255.6 43.3 249.5 42 L 249.5 41 Q 254.5 42 255.5 39 Z " /><path fill="rgb(175,0,253)" stroke="rgb(175,0,253)" stroke-width="1" opacity="1" d="M 73 42 L 80 43 L 79.5 45 L 72.5 45 L 73 43.5 L 73 42 Z " /><path fill="rgb(175,0,253)" stroke="rgb(175,0,253)" stroke-width="1" opacity="1" d="M 169.5 42 L 176 43 L 175.5 45 L 161.5 45 L 161.5 44 Q 168 45.5 169.5 42 Z " /><path fill="rgb(175,0,253)" stroke="rgb(175,0,253)" stroke-width="1" opacity="1" d="M 265.5 42 L 272 43 L 271.5 45 L 257.5 45 L 257.5 44 Q 264 45.5 265.5 42 Z " /><path fill="rgb(175,0,253)" stroke="rgb(175,0,253)" stroke-width="1" opacity="1" d="M 43 44 Q 47.1 42.7 46 46 Q 41.9 47.3 43 44 Z " /><path fill="rgb(175,0,253)" stroke="rgb(175,0,253)" stroke-width="1" opacity="1" d="M 139 44 Q 143.1 42.7 142 46 Q 137.9 47.3 139 44 Z " /><path fill="rgb(175,0,253)" stroke="rgb(175,0,253)" stroke-width="1" opacity="1" d="M 235 44 Q 239.1 42.7 238 46 Q 233.9 47.3 235 44 Z " /><path fill="rgb(175,0,253)" stroke="rgb(175,0,253)" stroke-width="1" opacity="1" d="M 27.5 54 Q 31.3 53.3 32 55.5 L 32 62.5 L 30 63 L 30 56 L 26 56 Q 27.7 63.1 23.5 65 L 24 63.5 Q 23.3 57.4 25 55 L 27.5 54 Z " /><path fill="rgb(175,0,253)" stroke="rgb(175,0,253)" stroke-width="1" opacity="1" d="M 123.5 54 Q 127.3 53.3 128 55.5 L 128 62.5 L 126 63 L 126 56 L 122 56 Q 123.8 63.1 119.5 65 L 120 63.5 Q 119.3 57.4 121 55 L 123.5 54 Z " /><path fill="rgb(175,0,253)" stroke="rgb(175,0,253)" stroke-width="1" opacity="1" d="M 219.5 54 Q 223.3 53.3 224 55.5 L 224 62.5 L 222 63 L 222 56 L 218 56 Q 219.8 62.6 216 64.5 L 215.5 84 L 215 64.5 L 217 55 L 219.5 54 Z " /><path fill="rgb(175,0,253)" stroke="rgb(175,0,253)" stroke-width="1" opacity="1" d="M 119.5 72 L 120 83.5 L 118 82.5 L 119.5 72 Z " /><path fill="rgb(175,0,253)" stroke="rgb(175,0,253)" stroke-width="1" opacity="1" d="M 223 80 L 226 81.5 L 223.5 85 L 224 83.5 L 223 80 Z " /><path fill="rgb(175,0,253)" stroke="rgb(175,0,253)" stroke-width="1" opacity="1" d="M 80.5 84 Q 85.3 82.7 84 86 Q 80.2 86.8 80.5 84 Z " /><path fill="rgb(175,0,253)" stroke="rgb(175,0,253)" stroke-width="1" opacity="1" d="M 176.5 84 Q 181.3 82.7 180 86 Q 176.2 86.8 176.5 84 Z " /><path fill="rgb(175,0,253)" stroke="rgb(175,0,253)" stroke-width="1" opacity="1" d="M 272.5 84 Q 277.3 82.7 276 86 Q 272.2 86.8 272.5 84 Z " /><path fill="rgb(175,0,253)" stroke="rgb(175,0,253)" stroke-width="1" opacity="1" d="M 169.5 132 Q 176.4 130 175 134 L 167 133.5 L 169.5 132 Z " /><path fill="rgb(175,0,253)" stroke="rgb(175,0,253)" stroke-width="1" opacity="1" d="M 158.5 136 L 159 138 L 153 137.5 L 158.5 136 Z " /><path fill="rgb(175,0,253)" stroke="rgb(175,0,253)" stroke-width="1" opacity="1" d="M 168 138 L 176 139 L 175.5 141 L 168 141 L 168 138 Z " /><path fill="rgb(175,0,253)" stroke="rgb(175,0,253)" stroke-width="1" opacity="1" d="M 139 140 Q 143.1 138.7 142 142 L 139.5 143 L 139 140 Z " /><path fill="rgb(175,0,253)" stroke="rgb(175,0,253)" stroke-width="1" opacity="1" d="M 123.5 150 Q 127.3 149.3 128 151.5 L 128 158.5 L 126 159 L 126 152 L 122 152 Q 123.8 159.1 119.5 161 L 120 159.5 Q 119.3 153.4 121 151 L 123.5 150 Z " /><path fill="rgb(175,0,253)" stroke="rgb(175,0,253)" stroke-width="1" opacity="1" d="M 127.5 178 L 128 181 Q 125.3 182.1 126 179.5 L 127.5 178 Z " /><path fill="rgb(175,0,253)" stroke="rgb(175,0,253)" stroke-width="1" opacity="1" d="M 176.5 180 Q 181.3 178.7 180 182 Q 176.2 182.8 176.5 180 Z " /><path fill="rgb(206,108,247)" stroke="rgb(206,108,247)" stroke-width="1" opacity="0.984313725490196" d="M 7.5 6 L 9 6.5 L 7 7 L 6.5 16 L 6 7.5 L 7.5 6 Z " /><path fill="rgb(206,108,247)" stroke="rgb(206,108,247)" stroke-width="1" opacity="0.984313725490196" d="M 16.5 6 L 23 6.5 L 16.5 7 L 16.5 6 Z " /><path fill="rgb(206,108,247)" stroke="rgb(206,108,247)" stroke-width="1" opacity="0.984313725490196" d="M 91.5 6 L 95 6.5 L 91.5 7 L 91.5 6 Z " /><path fill="rgb(206,108,247)" stroke="rgb(206,108,247)" stroke-width="1" opacity="0.984313725490196" d="M 100.5 6 L 102.5 7 L 103.5 6 L 111.5 6 L 111.5 7 L 103.5 7 L 103 8.5 L 101 8.5 L 100.5 10 L 100 8.5 L 100.5 6 Z " /><path fill="rgb(206,108,247)" stroke="rgb(206,108,247)" stroke-width="1" opacity="0.984313725490196" d="M 196.5 6 L 198.5 7 L 199.5 6 L 207.5 6 L 207.5 7 L 199.5 7 L 199 8.5 L 196 10 L 195.5 8 L 184 19.5 L 184 30.5 L 182.5 32 L 172.5 32 L 150.5 37 L 134.5 43 L 116.5 53 L 116 30.5 L 117 30.5 L 117.5 32 L 119.5 28 L 120.5 30 L 121 28 L 125.5 29 L 131 27.5 L 129 27 L 129.5 25 L 131.5 25 L 148.5 22 L 151.5 23 Q 153.3 20.3 159.5 22 L 161 20.5 L 116.5 20 L 104 8.5 L 191.5 8 L 192.5 7 L 194.5 8 L 196.5 6 Z " /><path fill="rgb(206,108,247)" stroke="rgb(206,108,247)" stroke-width="1" opacity="0.984313725490196" d="M 288.5 6 L 291 8.5 L 280 19.5 L 280 30.5 L 278.5 32 L 268.5 32 L 246.5 37 L 230.5 43 L 212.5 53 L 212 29.5 L 213 29.5 L 213.5 33 L 215.5 28 L 216.5 30 L 217 28 L 220.5 29 L 227 27.5 L 225 27 L 225.5 25 L 227.5 25 L 244.5 22 L 247.5 23 Q 249.2 20.3 255.5 22 L 257 20.5 L 212.5 20 L 200 8.5 L 289 7.5 L 288.5 6 Z " /><path fill="rgb(206,108,247)" stroke="rgb(206,108,247)" stroke-width="1" opacity="0.984313725490196" d="M 291.5 6 L 294 7.5 L 293.5 11 L 293 7 L 291.5 6 Z " /><path fill="rgb(206,108,247)" stroke="rgb(206,108,247)" stroke-width="1" opacity="0.984313725490196" d="M 8.5 8 L 99 8.5 L 88 19.5 L 88 30.5 L 86.5 32 L 76.5 32 L 54.5 37 L 38.5 43 L 20.5 53 L 20 30.5 L 21 30.5 L 21.5 33 L 23.5 28 L 24.5 30 L 25 28 L 29.5 29 L 35.5 25 L 44.5 24 L 48.5 22 L 58.5 22 L 59.5 21 Q 61 23.5 66.5 22 L 66.5 21 Q 61 18.5 51.5 20 L 48.5 21 L 47.5 20 L 20.5 20 L 8.5 8 Z M 85 20 L 85 21 L 87 21 L 85 20 Z M 73 21 L 73 22 L 80 22 L 73 21 Z " /><path fill="rgb(206,108,247)" stroke="rgb(206,108,247)" stroke-width="1" opacity="0.984313725490196" d="M 103.5 10 L 104 12.5 L 103 14.5 L 104 15.5 L 104 96.5 L 102.5 99 L 101.5 97 L 101 100 L 106 101.5 L 103 103.5 L 102.5 107 L 102 103.5 L 103 101 L 100.5 102 L 100 95.5 L 102 95.5 L 102 94 L 100 93.5 L 100 15.5 L 101.5 13 L 100 12.5 L 103.5 10 Z " /><path fill="rgb(206,108,247)" stroke="rgb(206,108,247)" stroke-width="1" opacity="0.984313725490196" d="M 198.5 11 L 200 13.5 L 200 15.5 L 200 97.5 L 198 98 L 198 99.5 L 199.5 102 L 197 101 L 198 103.5 L 194.5 101 L 193 100.5 L 195.5 100 L 197 100.5 L 196 98.5 L 196 15.5 L 197.5 13 L 196 12.5 L 198.5 11 Z " /><path fill="rgb(206,108,247)" stroke="rgb(206,108,247)" stroke-width="1" opacity="0.984313725490196" d="M 27.5 25 L 28 27 L 26 26.5 L 27.5 25 Z " /><path fill="rgb(206,108,247)" stroke="rgb(206,108,247)" stroke-width="1" opacity="0.984313725490196" d="M 123.5 25 L 124 27 L 122 26.5 L 123.5 25 Z " /><path fill="rgb(206,108,247)" stroke="rgb(206,108,247)" stroke-width="1" opacity="0.984313725490196" d="M 219.5 25 L 220 27 L 218 26.5 L 219.5 25 Z " /><path fill="rgb(206,108,247)" stroke="rgb(206,108,247)" stroke-width="1" opacity="0.984313725490196" d="M 293.5 96 L 292.5 98 L 293.5 96 Z " /><path fill="rgb(206,108,247)" stroke="rgb(206,108,247)" stroke-width="1" opacity="0.984313725490196" d="M 6 97 L 8 97.5 L 7 100.5 L 7.5 102 Q 5 100.8 6 97 Z " /><path fill="rgb(206,108,247)" stroke="rgb(206,108,247)" stroke-width="1" opacity="0.984313725490196" d="M 97.5 100 L 98.5 102 L 97.5 100 Z " /><path fill="rgb(206,108,247)" stroke="rgb(206,108,247)" stroke-width="1" opacity="0.984313725490196" d="M 293.5 100 L 292.5 102 L 291 101.5 L 293.5 100 Z " /><path fill="rgb(206,108,247)" stroke="rgb(206,108,247)" stroke-width="1" opacity="0.984313725490196" d="M 109.5 101 L 181 101.5 L 109.5 102 L 109.5 101 Z " /><path fill="rgb(206,108,247)" stroke="rgb(206,108,247)" stroke-width="1" opacity="0.984313725490196" d="M 182.5 101 Q 190.7 99.9 194 102 L 195 104.5 L 184 115.5 L 184 127 Q 180.7 129.1 172.5 128 L 150.5 133 L 134.5 139 L 116.5 149 L 116 126.5 L 117 126.5 L 117.5 129 L 119.5 124 L 120.5 126 L 121 124 L 125.5 125 L 129 122.5 L 129.5 121 L 131.5 121 L 140.5 120 L 144.5 118 L 158.5 118 L 160.5 117 L 162 117.5 L 161.5 116 L 116.5 116 L 104 104.5 L 107.5 103 L 109.5 104 L 111.5 104 L 193 103.5 L 182.5 102 L 182.5 101 Z " /><path fill="rgb(206,108,247)" stroke="rgb(206,108,247)" stroke-width="1" opacity="0.984313725490196" d="M 204.5 101 L 208 101.5 L 204.5 102 L 204.5 101 Z " /><path fill="rgb(206,108,247)" stroke="rgb(206,108,247)" stroke-width="1" opacity="0.984313725490196" d="M 197.5 107 L 196.5 109 L 197.5 107 Z " /><path fill="rgb(206,108,247)" stroke="rgb(206,108,247)" stroke-width="1" opacity="0.984313725490196" d="M 196 116 L 198 116.5 L 197 119.5 L 198 124.5 L 197 127.5 L 197 135.5 L 198 136.5 L 197 137.5 L 197 148.5 L 197 150.5 L 198 153.5 L 198 155.5 L 198 165.5 L 197 166.5 L 197 168.5 L 198 173.5 L 197 175.5 L 198 176.5 L 198 190.5 L 196.5 194 L 196 191.5 L 196 116 Z " /><path fill="rgb(206,108,247)" stroke="rgb(206,108,247)" stroke-width="1" opacity="0.984313725490196" d="M 123.5 121 L 124 123 L 122 122.5 L 123.5 121 Z " /><path fill="rgb(206,108,247)" stroke="rgb(206,108,247)" stroke-width="1" opacity="0.984313725490196" d="M 102.5 144 L 103 146.5 L 102 146.5 L 102.5 144 Z " /><path fill="rgb(206,108,247)" stroke="rgb(206,108,247)" stroke-width="1" opacity="0.984313725490196" d="M 103.5 192 L 104 193.5 L 103 196.5 L 103.5 198 L 102 194.5 L 103.5 192 Z " /><path fill="rgb(206,108,247)" stroke="rgb(206,108,247)" stroke-width="1" opacity="0.984313725490196" d="M 197.5 196 L 196.5 198 L 195 197.5 L 197.5 196 Z " /><path fill="rgb(206,108,247)" stroke="rgb(206,108,247)" stroke-width="1" opacity="0.984313725490196" d="M 127.5 197 L 137 197.5 L 127.5 198 L 127.5 197 Z " /><path fill="rgb(123,1,183)" stroke="rgb(123,1,183)" stroke-width="1" opacity="0.996078431372549" d="M 99.5 9 L 100 100 L 8 99.5 L 19.5 88 L 88 88 L 88 81.5 L 89 80.5 L 89 36.5 L 88 35.5 L 88 20.5 L 99.5 9 Z " /><path fill="rgb(123,1,183)" stroke="rgb(123,1,183)" stroke-width="1" opacity="0.996078431372549" d="M 195.5 9 L 196 100 L 104 99.5 L 115.5 88 L 184 88 L 184 81.5 L 185 80.5 L 185 48.5 L 184 47.5 L 184 20.5 L 195.5 9 Z " /><path fill="rgb(123,1,183)" stroke="rgb(123,1,183)" stroke-width="1" opacity="0.996078431372549" d="M 291.5 9 L 292 100 L 200 99.5 L 211.5 88 L 280 88 L 280 81.5 L 281 80.5 L 281 48.5 L 280 47.5 L 280 20.5 L 291.5 9 Z " /><path fill="rgb(123,1,183)" stroke="rgb(123,1,183)" stroke-width="1" opacity="0.996078431372549" d="M 195.5 105 L 196 196 L 104 195.5 L 115.5 184 L 184 184 L 184 177.5 L 185 176.5 L 185 144.5 L 184 143.5 L 184 116.5 L 195.5 105 Z " /><path fill="rgb(169,0,244)" stroke="rgb(169,0,244)" stroke-width="1" opacity="1" d="M 79.5 32 L 88 32 L 88 35.5 L 89 36.5 L 89 80.5 L 88 81.5 L 88 88 L 20 88 L 20 54.5 L 40.5 43 L 60.5 36 L 79.5 32 Z M 84 34 L 84 36 L 82 35 Q 74 34 72 37 L 65 37 L 55 42 L 51 41 L 44 44 L 40 48 Q 33 47 31 51 Q 27 50 28 53 L 22 58 L 22 73 L 23 74 L 22 85 L 33 86 L 37 86 L 41 85 Q 47 83 49 86 L 72 86 L 73 85 L 86 86 L 84 83 Q 83 79 86 80 L 86 73 L 87 72 L 87 49 L 86 48 L 86 39 L 87 38 L 86 36 Q 87 33 84 34 Z " /><path fill="rgb(169,0,244)" stroke="rgb(169,0,244)" stroke-width="1" opacity="1" d="M 175.5 32 L 184 32 L 184 47.5 L 185 48.5 L 185 80.5 L 184 81.5 L 184 88 L 116 88 L 116 54.5 L 120.5 51 L 144.5 40 L 153.5 38 L 156.5 36 L 175.5 32 Z M 180 34 L 180 36 L 178 35 Q 170 34 168 37 L 161 37 L 151 42 L 147 41 L 143 44 L 139 44 Q 140 47 138 46 L 136 46 L 127 51 Q 123 50 124 53 L 122 54 L 118 58 L 118 85 L 129 86 L 133 86 L 137 85 Q 143 83 145 86 L 168 86 L 169 85 L 182 86 L 180 83 L 182 80 L 182 65 L 183 64 L 183 49 L 182 48 L 183 36 L 180 34 Z " /><path fill="rgb(169,0,244)" stroke="rgb(169,0,244)" stroke-width="1" opacity="1" d="M 271.5 32 L 280 32 L 280 47.5 L 281 48.5 L 281 80.5 L 280 81.5 L 280 88 L 212 88 L 212 54.5 L 216.5 51 L 240.5 40 L 249.5 38 L 252.5 36 L 271.5 32 Z M 276 34 L 276 36 L 274 35 Q 266 34 264 37 L 257 37 L 247 42 L 243 41 L 239 44 L 235 44 Q 236 47 234 46 L 232 46 L 223 51 Q 219 50 220 53 L 218 54 L 214 58 L 214 85 L 218 86 L 226 86 L 227 85 Q 231 84 233 86 Q 239 88 241 85 Q 247 83 249 86 Q 255 88 257 85 Q 263 83 265 86 L 277 86 L 278 85 L 276 84 Q 275 81 278 80 L 278 65 L 279 64 L 279 49 L 278 48 L 279 36 L 276 34 Z " /><path fill="rgb(169,0,244)" stroke="rgb(169,0,244)" stroke-width="1" opacity="1" d="M 76.5 39 L 81 39.5 L 79.5 42 Q 78.3 39.7 73.5 41 L 71 42 Q 69.7 38.3 75.5 40 L 76.5 39 Z " /><path fill="rgb(169,0,244)" stroke="rgb(169,0,244)" stroke-width="1" opacity="1" d="M 172.5 39 L 177 39.5 L 175.5 42 Q 174.3 39.7 169.5 41 Q 168.3 43.3 167 40.5 L 172.5 39 Z " /><path fill="rgb(169,0,244)" stroke="rgb(169,0,244)" stroke-width="1" opacity="1" d="M 268.5 39 L 273 39.5 L 271.5 42 Q 270.3 39.7 265.5 41 Q 264.3 43.3 263 40.5 L 268.5 39 Z " /><path fill="rgb(169,0,244)" stroke="rgb(169,0,244)" stroke-width="1" opacity="1" d="M 79.5 46 L 80 48 L 73 47.5 L 79.5 46 Z " /><path fill="rgb(169,0,244)" stroke="rgb(169,0,244)" stroke-width="1" opacity="1" d="M 175.5 46 L 176 48 L 169 47.5 L 175.5 46 Z " /><path fill="rgb(169,0,244)" stroke="rgb(169,0,244)" stroke-width="1" opacity="1" d="M 271.5 46 L 272 48 L 265 47.5 L 271.5 46 Z " /><path fill="rgb(169,0,244)" stroke="rgb(169,0,244)" stroke-width="1" opacity="1" d="M 175.5 128 L 184 128 L 184 143.5 L 185 144.5 L 185 176.5 L 184 177.5 L 184 184 L 116 184 L 116 150.5 L 120.5 147 L 144.5 136 L 156.5 132 L 175.5 128 Z M 176 130 L 168 133 L 162 133 L 156 136 Q 151 135 152 138 L 147 137 Q 144 141 139 140 L 138 143 L 136 142 Q 133 141 134 144 Q 129 144 127 147 Q 123 146 124 149 L 118 154 L 118 181 L 121 181 L 123 181 L 126 182 L 129 181 Q 135 179 137 182 Q 143 184 145 181 Q 151 179 153 182 Q 159 184 161 181 Q 167 179 169 182 L 181 182 L 182 181 L 180 180 L 183 168 L 183 145 L 182 144 L 182 135 L 183 134 L 182 130 Q 179 129 180 132 L 176 130 Z " /><path fill="rgb(169,0,244)" stroke="rgb(169,0,244)" stroke-width="1" opacity="1" d="M 170.5 135 Q 177.4 133 176 137 L 169.5 137 L 168.5 138 L 167.5 136 L 170.5 135 Z " /><path fill="rgb(169,0,244)" stroke="rgb(169,0,244)" stroke-width="1" opacity="1" d="M 169.5 143 L 176 143.5 L 169.5 144 L 169.5 143 Z " /><path fill="rgb(176,0,251)" stroke="rgb(176,0,251)" stroke-width="1" opacity="1" d="M 75.5 35 Q 80.8 33.8 82 36.5 Q 81.3 38.8 77.5 38 L 75.5 38 L 73.5 37 L 72 37.5 L 75.5 35 Z " /><path fill="rgb(176,0,251)" stroke="rgb(176,0,251)" stroke-width="1" opacity="1" d="M 84 35 Q 87.3 33.9 86 38 Q 82.7 39.1 84 35 Z " /><path fill="rgb(176,0,251)" stroke="rgb(176,0,251)" stroke-width="1" opacity="1" d="M 171.5 35 Q 176.8 33.8 178 36.5 Q 177.3 38.8 173.5 38 L 171.5 38 L 169.5 37 L 168 37.5 L 171.5 35 Z " /><path fill="rgb(176,0,251)" stroke="rgb(176,0,251)" stroke-width="1" opacity="1" d="M 180 35 Q 183.3 33.9 182 38 Q 178.7 39.1 180 35 Z " /><path fill="rgb(176,0,251)" stroke="rgb(176,0,251)" stroke-width="1" opacity="1" d="M 267.5 35 Q 272.8 33.8 274 36.5 Q 273.3 38.8 269.5 38 L 267.5 38 L 265.5 37 L 264 37.5 L 267.5 35 Z " /><path fill="rgb(176,0,251)" stroke="rgb(176,0,251)" stroke-width="1" opacity="1" d="M 276 35 Q 279.3 33.9 278 38 Q 274.7 39.1 276 35 Z " /><path fill="rgb(176,0,251)" stroke="rgb(176,0,251)" stroke-width="1" opacity="1" d="M 49.5 41 L 56 43.5 L 54.5 46 Q 48.3 47.3 47 43.5 L 49.5 41 Z " /><path fill="rgb(176,0,251)" stroke="rgb(176,0,251)" stroke-width="1" opacity="1" d="M 85.5 41 L 86 78.5 L 85 78.5 L 85.5 41 Z " /><path fill="rgb(176,0,251)" stroke="rgb(176,0,251)" stroke-width="1" opacity="1" d="M 145.5 41 L 152 43.5 L 150.5 46 Q 144.3 47.3 143 43.5 L 145.5 41 Z " /><path fill="rgb(176,0,251)" stroke="rgb(176,0,251)" stroke-width="1" opacity="1" d="M 181.5 41 L 182 70.5 L 181 70.5 L 181.5 41 Z " /><path fill="rgb(176,0,251)" stroke="rgb(176,0,251)" stroke-width="1" opacity="1" d="M 241.5 41 L 248 43.5 L 246.5 46 Q 240.3 47.3 239 43.5 L 241.5 41 Z " /><path fill="rgb(176,0,251)" stroke="rgb(176,0,251)" stroke-width="1" opacity="1" d="M 277.5 41 L 278 70.5 L 277 70.5 L 277.5 41 Z " /><path fill="rgb(176,0,251)" stroke="rgb(176,0,251)" stroke-width="1" opacity="1" d="M 64 42 L 72.5 42 L 73 43.5 L 71.5 45 L 64 45 L 64 42 Z " /><path fill="rgb(176,0,251)" stroke="rgb(176,0,251)" stroke-width="1" opacity="1" d="M 160 42 L 169 42.5 L 167.5 44 Q 162 42.5 160.5 45 L 160 42 Z " /><path fill="rgb(176,0,251)" stroke="rgb(176,0,251)" stroke-width="1" opacity="1" d="M 256 42 L 265 42.5 L 263.5 44 Q 258 42.5 256.5 45 L 256 42 Z " /><path fill="rgb(176,0,251)" stroke="rgb(176,0,251)" stroke-width="1" opacity="1" d="M 141.5 46 Q 144.8 44.9 144 47.5 L 141.5 48 L 140 47.5 L 141.5 46 Z " /><path fill="rgb(176,0,251)" stroke="rgb(176,0,251)" stroke-width="1" opacity="1" d="M 237.5 46 Q 240.8 44.9 240 47.5 L 237.5 48 L 236 47.5 L 237.5 46 Z " /><path fill="rgb(176,0,251)" stroke="rgb(176,0,251)" stroke-width="1" opacity="1" d="M 31.5 50 Q 34.5 49.1 33 53.5 Q 31.7 56.3 30.5 54 L 28 53.5 L 28.5 51 L 31.5 50 Z " /><path fill="rgb(176,0,251)" stroke="rgb(176,0,251)" stroke-width="1" opacity="1" d="M 127.5 50 L 129 53.5 Q 127.7 56.3 126.5 54 L 124 53.5 L 124.5 51 L 127.5 50 Z " /><path fill="rgb(176,0,251)" stroke="rgb(176,0,251)" stroke-width="1" opacity="1" d="M 223.5 50 L 225 53.5 Q 223.8 56.3 222.5 54 L 220 53.5 L 220.5 51 L 223.5 50 Z " /><path fill="rgb(176,0,251)" stroke="rgb(176,0,251)" stroke-width="1" opacity="1" d="M 23.5 60 L 24 63.5 L 23 63.5 L 23.5 60 Z " /><path fill="rgb(176,0,251)" stroke="rgb(176,0,251)" stroke-width="1" opacity="1" d="M 119.5 60 L 120 63.5 L 119 63.5 L 119.5 60 Z " /><path fill="rgb(176,0,251)" stroke="rgb(176,0,251)" stroke-width="1" opacity="1" d="M 215.5 60 L 216 63.5 L 215 63.5 L 215.5 60 Z " /><path fill="rgb(176,0,251)" stroke="rgb(176,0,251)" stroke-width="1" opacity="1" d="M 23.5 65 L 24 80 L 30 82.5 L 24 85 L 23 81.5 L 23 79.5 L 23.5 65 Z " /><path fill="rgb(176,0,251)" stroke="rgb(176,0,251)" stroke-width="1" opacity="1" d="M 119.5 65 L 120 71.5 L 119 71.5 L 119.5 65 Z " /><path fill="rgb(176,0,251)" stroke="rgb(176,0,251)" stroke-width="1" opacity="1" d="M 217.5 79 L 222 80 L 220.5 84 L 216 85 Q 214.8 80.4 217.5 79 Z " /><path fill="rgb(176,0,251)" stroke="rgb(176,0,251)" stroke-width="1" opacity="1" d="M 120 80 L 126 82.5 L 120 85 L 120 80 Z " /><path fill="rgb(176,0,251)" stroke="rgb(176,0,251)" stroke-width="1" opacity="1" d="M 81.5 81 L 84 82.5 L 85 84.5 L 83.5 84 Q 79.1 85.5 80 82.5 L 81.5 81 Z " /><path fill="rgb(176,0,251)" stroke="rgb(176,0,251)" stroke-width="1" opacity="1" d="M 178.5 81 L 181 84.5 L 179.5 84 L 176 83.5 L 178.5 81 Z " /><path fill="rgb(176,0,251)" stroke="rgb(176,0,251)" stroke-width="1" opacity="1" d="M 268 82 Q 274.1 80.3 276 83.5 L 268 84 L 268 82 Z " /><path fill="rgb(176,0,251)" stroke="rgb(176,0,251)" stroke-width="1" opacity="1" d="M 172.5 131 Q 178.8 129.1 177 134 Q 174 135 175 132 L 172.5 132 L 172.5 131 Z " /><path fill="rgb(176,0,251)" stroke="rgb(176,0,251)" stroke-width="1" opacity="1" d="M 180 131 Q 183.3 129.9 182 134 Q 178.7 135.1 180 131 Z " /><path fill="rgb(176,0,251)" stroke="rgb(176,0,251)" stroke-width="1" opacity="1" d="M 164.5 133 L 167 133.5 L 164.5 134 L 164.5 133 Z " /><path fill="rgb(176,0,251)" stroke="rgb(176,0,251)" stroke-width="1" opacity="1" d="M 145.5 137 L 152 139.5 L 150.5 142 Q 145.3 143.3 144 140.5 L 145.5 137 Z " /><path fill="rgb(176,0,251)" stroke="rgb(176,0,251)" stroke-width="1" opacity="1" d="M 181.5 137 L 182 174.5 L 181 174.5 L 181.5 137 Z " /><path fill="rgb(176,0,251)" stroke="rgb(176,0,251)" stroke-width="1" opacity="1" d="M 160 138 L 168 138 L 168 141 L 160 141 L 160 138 Z " /><path fill="rgb(176,0,251)" stroke="rgb(176,0,251)" stroke-width="1" opacity="1" d="M 127.5 146 L 129 149.5 Q 127.7 152.3 126.5 150 L 124 149.5 L 125 147 L 127.5 146 Z " /><path fill="rgb(176,0,251)" stroke="rgb(176,0,251)" stroke-width="1" opacity="1" d="M 119.5 156 L 120 159.5 L 119 159.5 L 119.5 156 Z " /><path fill="rgb(176,0,251)" stroke="rgb(176,0,251)" stroke-width="1" opacity="1" d="M 119.5 161 L 120.5 176 L 122.5 176 Q 127.3 174.3 126 178.5 L 120 181 L 119 177.5 L 119 175.5 L 119.5 161 Z " /><path fill="rgb(176,0,251)" stroke="rgb(176,0,251)" stroke-width="1" opacity="1" d="M 172 178 Q 178.1 176.3 180 179.5 L 172 180 L 172 178 Z " /><path fill="rgb(182,40,234)" stroke="rgb(182,40,234)" stroke-width="1" opacity="0.996078431372549" d="M 9.5 6 L 22.5 7 Q 24.3 4.3 30.5 6 L 32.5 6 Q 38 4.5 39.5 7 L 40.5 6 L 72.5 6 L 74.5 6 Q 80 4.5 81.5 7 L 82.5 6 L 90.5 6 L 94.5 7 L 99.5 6 L 103 8.5 L 103.5 7 L 111.5 7 L 112.5 6 L 154.5 6 L 156.5 6 L 195.5 6 L 198.5 9 L 199 7 L 213.5 6 L 215.5 7 L 216.5 6 L 270.5 6 L 272.5 6 L 287.5 6 L 288.5 7 L 290.5 6 L 293 7 L 294 11.5 L 294 66.5 L 294 68.5 L 293 71.5 L 294 72.5 L 294 95.5 L 294 97.5 L 292.5 101 L 290.5 102 L 290 100 Q 292.7 101.1 292 98.5 L 292 96.5 L 292 13.5 L 293 12.5 L 291.5 9 L 280 19.5 L 291 8.5 L 289.5 7 L 288.5 8 L 200 8.5 L 210.5 19 L 212 19 L 212.5 53 L 227.5 45 L 227.5 46 L 212 54.5 L 212 87.5 L 200 99.5 L 289 100 L 288.5 102 L 286.5 102 L 231.5 102 L 230.5 101 L 229.5 102 L 208.5 102 L 204.5 101 L 200.5 102 L 198 98 L 200 97.5 L 200 15.5 L 198 15.5 L 200 12.5 L 196 14.5 Q 195.3 12.3 197.5 13 L 197.5 12 Q 194.9 12.7 196 10 L 198 9.5 L 196.5 8 L 184 19.5 L 194.5 8 L 192.5 7 L 191.5 8 L 104 8.5 L 114.5 19 L 116 19 L 116.5 53 L 131.5 45 L 131.5 46 L 116 54.5 L 116 87.5 L 104 99.5 L 192.5 100 L 198 104.5 L 198 108.5 L 198 115.5 L 196 116 L 196 109.5 L 197 108.5 L 195.5 105 L 184 115.5 L 195 104.5 L 194 103.5 Q 194.8 101.3 192.5 102 L 191.5 101 L 182.5 101 L 182.5 102 L 193 103.5 L 111.5 104 L 109.5 104 L 107.5 103 L 104 104.5 L 114.5 115 L 116 115 L 116.5 149 L 131.5 141 L 131.5 142 L 116 150.5 L 116 183.5 L 104 195.5 L 196 196 L 197 193.5 Q 194.8 192.3 197.5 191 L 198 193.5 L 196.5 197 L 194.5 198 L 192.5 198 L 142.5 198 L 140.5 197 L 137.5 198 L 136.5 197 L 127.5 197 L 126.5 198 L 109.5 198 L 107.5 197 L 104.5 198 L 102 193.5 L 102 174.5 L 102 172.5 L 102 147.5 L 103 144.5 L 102 143.5 L 102 112.5 L 103 110.5 L 102 107.5 L 104.5 102 L 106 101.5 L 101 100 L 102 96.5 L 100.5 94 Q 102.8 93.3 102 95.5 L 104 96.5 L 103.5 15 L 102 15.5 L 104 12.5 L 100 14.5 Q 99.3 12.3 101.5 13 L 101.5 12 Q 99.3 12.8 100 10.5 L 101 8.5 L 88 19.5 L 98.5 8 L 8 8.5 L 18.5 19 L 20 19 L 20.5 53 L 35.5 45 L 35.5 46 L 20 54.5 L 20 87.5 L 8 99.5 L 96.5 100 L 97.5 101 L 100 100 L 99.5 102 L 97.5 102 L 77.5 102 L 76.5 101 L 72.5 102 L 70.5 101 L 67.5 102 L 13.5 102 L 12.5 101 L 8.5 102 L 7 98.5 L 7.5 97 L 6 96.5 L 6 16.5 L 7 15.5 L 7 7 L 9.5 6 Z M 110 101 L 110 102 L 181 102 L 110 101 Z " /><path fill="rgb(182,40,234)" stroke="rgb(182,40,234)" stroke-width="1" opacity="0.996078431372549" d="M 76.5 32 L 79 32.5 L 76.5 33 L 76.5 32 Z " /><path fill="rgb(182,40,234)" stroke="rgb(182,40,234)" stroke-width="1" opacity="0.996078431372549" d="M 172.5 32 L 175 32.5 L 172.5 33 L 172.5 32 Z " /><path fill="rgb(182,40,234)" stroke="rgb(182,40,234)" stroke-width="1" opacity="0.996078431372549" d="M 268.5 32 L 271 32.5 L 268.5 33 L 268.5 32 Z " /><path fill="rgb(182,40,234)" stroke="rgb(182,40,234)" stroke-width="1" opacity="0.996078431372549" d="M 58.5 36 L 60 36.5 L 52.5 39 L 52.5 38 L 58.5 36 Z " /><path fill="rgb(182,40,234)" stroke="rgb(182,40,234)" stroke-width="1" opacity="0.996078431372549" d="M 154.5 36 L 156 36.5 L 148.5 39 L 148.5 38 L 154.5 36 Z " /><path fill="rgb(182,40,234)" stroke="rgb(182,40,234)" stroke-width="1" opacity="0.996078431372549" d="M 250.5 36 L 252 36.5 L 244.5 39 L 244.5 38 L 250.5 36 Z " /><path fill="rgb(182,40,234)" stroke="rgb(182,40,234)" stroke-width="1" opacity="0.996078431372549" d="M 46.5 40 L 48 40.5 L 44.5 42 L 44.5 41 L 46.5 40 Z " /><path fill="rgb(182,40,234)" stroke="rgb(182,40,234)" stroke-width="1" opacity="0.996078431372549" d="M 142.5 40 L 144 40.5 L 140.5 42 L 140.5 41 L 142.5 40 Z " /><path fill="rgb(182,40,234)" stroke="rgb(182,40,234)" stroke-width="1" opacity="0.996078431372549" d="M 238.5 40 L 240 40.5 L 236.5 42 L 236.5 41 L 238.5 40 Z " /><path fill="rgb(182,40,234)" stroke="rgb(182,40,234)" stroke-width="1" opacity="0.996078431372549" d="M 137.5 42 L 139 42.5 L 133.5 45 L 134.5 43 L 137.5 42 Z " /><path fill="rgb(182,40,234)" stroke="rgb(182,40,234)" stroke-width="1" opacity="0.996078431372549" d="M 233.5 42 L 235 42.5 L 229.5 45 L 230.5 43 L 233.5 42 Z " /><path fill="rgb(182,40,234)" stroke="rgb(182,40,234)" stroke-width="1" opacity="0.996078431372549" d="M 38.5 43 L 40 43.5 L 37.5 45 L 38.5 43 Z " /><path fill="rgb(182,40,234)" stroke="rgb(182,40,234)" stroke-width="1" opacity="0.996078431372549" d="M 197.5 119 L 198 123.5 L 197 123.5 L 197.5 119 Z " /><path fill="rgb(182,40,234)" stroke="rgb(182,40,234)" stroke-width="1" opacity="0.996078431372549" d="M 197.5 127 L 198 135.5 L 197 135.5 L 197.5 127 Z " /><path fill="rgb(182,40,234)" stroke="rgb(182,40,234)" stroke-width="1" opacity="0.996078431372549" d="M 172.5 128 L 175 128.5 L 172.5 129 L 172.5 128 Z " /><path fill="rgb(182,40,234)" stroke="rgb(182,40,234)" stroke-width="1" opacity="0.996078431372549" d="M 162.5 130 L 165 130.5 L 162.5 131 L 162.5 130 Z " /><path fill="rgb(182,40,234)" stroke="rgb(182,40,234)" stroke-width="1" opacity="0.996078431372549" d="M 150.5 133 L 153 133.5 L 148.5 135 L 148.5 134 L 150.5 133 Z " /><path fill="rgb(182,40,234)" stroke="rgb(182,40,234)" stroke-width="1" opacity="0.996078431372549" d="M 142.5 136 L 144 136.5 L 140.5 138 L 140.5 137 L 142.5 136 Z " /><path fill="rgb(182,40,234)" stroke="rgb(182,40,234)" stroke-width="1" opacity="0.996078431372549" d="M 197.5 137 L 198 148.5 L 197 148.5 L 197.5 137 Z " /><path fill="rgb(182,40,234)" stroke="rgb(182,40,234)" stroke-width="1" opacity="0.996078431372549" d="M 137.5 138 L 139 138.5 L 133.5 141 L 134.5 139 L 137.5 138 Z " /><path fill="rgb(182,40,234)" stroke="rgb(182,40,234)" stroke-width="1" opacity="0.996078431372549" d="M 197.5 150 L 198 152.5 L 197 152.5 L 197.5 150 Z " /><path fill="rgb(182,40,234)" stroke="rgb(182,40,234)" stroke-width="1" opacity="0.996078431372549" d="M 197.5 168 L 198 170.5 L 197 170.5 L 197.5 168 Z " /><path fill="rgb(237,187,253)" stroke="rgb(237,187,253)" stroke-width="1" opacity="0.7058823529411765" d="M 7.5 5 L 101.5 5 L 102.5 6 L 103.5 5 L 196.5 5 L 198.5 6 L 199.5 5 L 293.5 5 L 295 6.5 L 295 100.5 L 293 101.5 L 294 100.5 L 294 7.5 L 292.5 6 L 199.5 6 L 197.5 7 L 196.5 6 L 103.5 6 L 101.5 7 L 100.5 6 L 7.5 6 L 6 7.5 L 6 100.5 L 7.5 102 L 98 102.5 L 6.5 103 L 5 101.5 L 5 7.5 L 7.5 5 Z " /><path fill="rgb(237,187,253)" stroke="rgb(237,187,253)" stroke-width="1" opacity="0.7058823529411765" d="M 20 20 L 47.5 20 L 50.5 21 L 51.5 20 L 63.5 20 L 67 21.5 L 60.5 22 L 58.5 22 L 48.5 22 L 33 26.5 L 33.5 28 L 31.5 28 L 28.5 29 L 25 28 L 24.5 30 L 23.5 28 L 21.5 33 Q 18.5 28.4 20 20 Z M 28 25 L 26 27 L 28 27 L 28 25 Z " /><path fill="rgb(237,187,253)" stroke="rgb(237,187,253)" stroke-width="1" opacity="0.7058823529411765" d="M 84.5 20 L 87 20.5 L 84.5 21 L 84.5 20 Z " /><path fill="rgb(237,187,253)" stroke="rgb(237,187,253)" stroke-width="1" opacity="0.7058823529411765" d="M 116 20 L 161 20.5 L 159.5 22 L 149.5 23 L 144.5 22 L 130.5 26 L 129 25.5 Q 128.3 27.8 130.5 27 L 130.5 28 L 124.5 29 L 121 28 L 120.5 30 L 119.5 28 L 117.5 32 L 116 29.5 L 116 20 Z M 124 25 L 122 27 L 124 27 L 124 25 Z " /><path fill="rgb(237,187,253)" stroke="rgb(237,187,253)" stroke-width="1" opacity="0.7058823529411765" d="M 212 20 L 257 20.5 L 255.5 22 L 245.5 23 L 240.5 22 L 226.5 26 L 225 25.5 Q 224.3 27.8 226.5 27 L 226.5 28 Q 221.8 26.8 220.5 29 L 217 28 L 216.5 30 L 215.5 28 L 213.5 33 Q 210.9 28 212 20 Z M 220 25 L 218 27 L 220 27 L 220 25 Z " /><path fill="rgb(237,187,253)" stroke="rgb(237,187,253)" stroke-width="1" opacity="0.7058823529411765" d="M 72.5 21 L 80 21.5 L 72.5 22 L 72.5 21 Z " /><path fill="rgb(237,187,253)" stroke="rgb(237,187,253)" stroke-width="1" opacity="0.7058823529411765" d="M 101.5 101 Q 103.8 100.3 103 102.5 L 101.5 101 Z " /><path fill="rgb(237,187,253)" stroke="rgb(237,187,253)" stroke-width="1" opacity="0.7058823529411765" d="M 197 101 L 199 101.5 L 199 196.5 L 196.5 199 L 191.5 200 L 190.5 199 L 102 199 L 101 196.5 L 101 105.5 L 102 105.5 L 102 196.5 L 103.5 198 L 196.5 198 L 198 196.5 L 198 103.5 L 197 101 Z " /><path fill="rgb(237,187,253)" stroke="rgb(237,187,253)" stroke-width="1" opacity="0.7058823529411765" d="M 200.5 102 L 292 102.5 L 200.5 103 L 200.5 102 Z " /><path fill="rgb(237,187,253)" stroke="rgb(237,187,253)" stroke-width="1" opacity="0.7058823529411765" d="M 116 116 L 161.5 116 L 162 117.5 L 160.5 117 L 158.5 118 L 144.5 118 L 130.5 122 L 129 121.5 Q 128.3 123.8 130.5 123 L 130.5 124 L 128.5 123 L 124.5 125 L 121 124 L 120.5 126 L 119.5 124 L 117.5 129 Q 114.5 124.4 116 116 Z M 124 121 L 122 123 L 124 123 L 124 121 Z " /><path fill="rgb(174,0,252)" stroke="rgb(174,0,252)" stroke-width="1" opacity="1" d="M 82.5 36 Q 84.8 35.3 84 37.5 L 82.5 36 Z " /><path fill="rgb(174,0,252)" stroke="rgb(174,0,252)" stroke-width="1" opacity="1" d="M 178.5 36 Q 180.8 35.3 180 37.5 L 178.5 36 Z " /><path fill="rgb(174,0,252)" stroke="rgb(174,0,252)" stroke-width="1" opacity="1" d="M 274.5 36 Q 276.8 35.3 276 37.5 L 274.5 36 Z " /><path fill="rgb(174,0,252)" stroke="rgb(174,0,252)" stroke-width="1" opacity="1" d="M 64 38 L 69 38.5 L 64 40.5 L 63 44 Q 57.6 45.5 56 42.5 L 56.5 41 L 63 42 L 62.5 40 L 59.5 41 L 59.5 40 L 62.5 39 L 64 39.5 L 64 38 Z " /><path fill="rgb(174,0,252)" stroke="rgb(174,0,252)" stroke-width="1" opacity="1" d="M 160 38 L 165 38.5 L 160 40.5 L 158.5 44 Q 153.3 45.3 152 42.5 L 152.5 41 L 159 42 L 158.5 40 L 155.5 41 L 155.5 40 L 158.5 39 L 160 39.5 L 160 38 Z " /><path fill="rgb(174,0,252)" stroke="rgb(174,0,252)" stroke-width="1" opacity="1" d="M 256 38 L 261 38.5 L 256 40.5 L 254.5 44 Q 249.3 45.3 248 42.5 L 248.5 41 L 255 42 L 254.5 40 L 251.5 41 L 251.5 40 L 254.5 39 L 256 39.5 L 256 38 Z " /><path fill="rgb(174,0,252)" stroke="rgb(174,0,252)" stroke-width="1" opacity="1" d="M 76.5 42 L 79 42.5 L 76.5 43 L 76.5 42 Z " /><path fill="rgb(174,0,252)" stroke="rgb(174,0,252)" stroke-width="1" opacity="1" d="M 172.5 42 L 175 42.5 L 172.5 43 L 172.5 42 Z " /><path fill="rgb(174,0,252)" stroke="rgb(174,0,252)" stroke-width="1" opacity="1" d="M 268.5 42 L 271 42.5 L 268.5 43 L 268.5 42 Z " /><path fill="rgb(174,0,252)" stroke="rgb(174,0,252)" stroke-width="1" opacity="1" d="M 46 44 L 49 45.5 L 46 46 L 46 44 Z " /><path fill="rgb(174,0,252)" stroke="rgb(174,0,252)" stroke-width="1" opacity="1" d="M 42.5 45 L 43.5 47 L 41.5 48 L 41 46.5 L 42.5 45 Z " /><path fill="rgb(174,0,252)" stroke="rgb(174,0,252)" stroke-width="1" opacity="1" d="M 73.5 45 L 79 45.5 L 73.5 46 L 73.5 45 Z " /><path fill="rgb(174,0,252)" stroke="rgb(174,0,252)" stroke-width="1" opacity="1" d="M 160 45 L 175 45.5 L 168.5 46 L 166.5 48 L 161.5 48 L 160 45 Z " /><path fill="rgb(174,0,252)" stroke="rgb(174,0,252)" stroke-width="1" opacity="1" d="M 256 45 L 271 45.5 L 264.5 46 L 262.5 48 L 257.5 48 L 256 45 Z " /><path fill="rgb(174,0,252)" stroke="rgb(174,0,252)" stroke-width="1" opacity="1" d="M 65 46 L 71 46 L 71 48 L 65 48 L 65 46 Z " /><path fill="rgb(174,0,252)" stroke="rgb(174,0,252)" stroke-width="1" opacity="1" d="M 82 48 L 84 48.5 L 84 72 L 82 71.5 L 82 48 Z " /><path fill="rgb(174,0,252)" stroke="rgb(174,0,252)" stroke-width="1" opacity="1" d="M 178 48 L 180 48.5 L 180 64 L 178 63.5 L 178 48 Z " /><path fill="rgb(174,0,252)" stroke="rgb(174,0,252)" stroke-width="1" opacity="1" d="M 274 48 L 276 48.5 L 276 64 L 274 63.5 L 274 48 Z " /><path fill="rgb(174,0,252)" stroke="rgb(174,0,252)" stroke-width="1" opacity="1" d="M 32.5 55 L 33 62.5 L 32 63.5 L 32 76 L 34 76 L 34.5 80 L 82.5 80 L 82.5 81 L 76.5 82 L 74.5 84 L 33.5 84 L 30 85 L 30 63.5 L 29 57 Q 25 55.6 27 62.5 L 26 62.5 L 26 56 L 30 56 L 30 62.5 L 32 63 L 32.5 55 Z " /><path fill="rgb(174,0,252)" stroke="rgb(174,0,252)" stroke-width="1" opacity="1" d="M 128.5 55 L 129 62.5 L 128 63.5 L 128 76 L 130 76 L 130.5 80 L 178 80 L 178 72.5 L 180 72 L 180 80.5 L 178.5 81 Q 177.3 83.2 172.5 82 L 170.5 84 L 129.5 84 L 126 85 L 126 63.5 L 125 57 Q 121 55.6 123 62.5 L 122 62.5 L 122 56 L 126 56 L 126 62.5 L 128 63 L 128.5 55 Z " /><path fill="rgb(174,0,252)" stroke="rgb(174,0,252)" stroke-width="1" opacity="1" d="M 224.5 55 L 225 62.5 L 224 63.5 L 224 78.5 L 225.5 80 L 274 80 L 274 72.5 L 276 72 L 276 80.5 L 274.5 82 Q 268 80.5 266.5 84 L 226.5 84 L 222.5 86 Q 219.8 84.8 222 83.5 L 222 63.5 L 221 57 Q 217 55.6 219 62.5 L 218 62.5 L 218 56 L 222 56 L 222 62.5 L 224 63 L 224.5 55 Z M 223 80 L 225 84 L 226 82 L 223 80 Z " /><path fill="rgb(174,0,252)" stroke="rgb(174,0,252)" stroke-width="1" opacity="1" d="M 24.5 56 L 24 57.5 L 23.5 60 L 23 57.5 L 24.5 56 Z " /><path fill="rgb(174,0,252)" stroke="rgb(174,0,252)" stroke-width="1" opacity="1" d="M 120.5 56 L 120 57.5 L 119.5 60 L 119 57.5 L 120.5 56 Z " /><path fill="rgb(174,0,252)" stroke="rgb(174,0,252)" stroke-width="1" opacity="1" d="M 216.5 56 L 216 57.5 L 215.5 60 L 215 57.5 L 216.5 56 Z " /><path fill="rgb(174,0,252)" stroke="rgb(174,0,252)" stroke-width="1" opacity="1" d="M 24 64 L 26 64.5 L 26 79 L 24 78.5 L 24 64 Z " /><path fill="rgb(174,0,252)" stroke="rgb(174,0,252)" stroke-width="1" opacity="1" d="M 120 64 L 122 64.5 L 122 78.5 L 120 79.5 L 120 64 Z " /><path fill="rgb(174,0,252)" stroke="rgb(174,0,252)" stroke-width="1" opacity="1" d="M 216 64 L 218 64.5 L 218 78.5 L 216 79.5 L 216 64 Z " /><path fill="rgb(174,0,252)" stroke="rgb(174,0,252)" stroke-width="1" opacity="1" d="M 158.5 135 Q 161.5 134.1 160 138.5 Q 158.8 141.3 153.5 140 L 152 137.5 L 153.5 138 Q 159.6 139.3 159 136.5 L 157.5 137 L 155 136.5 L 158.5 135 Z " /><path fill="rgb(174,0,252)" stroke="rgb(174,0,252)" stroke-width="1" opacity="1" d="M 172.5 138 L 176 138.5 L 172.5 139 L 172.5 138 Z " /><path fill="rgb(174,0,252)" stroke="rgb(174,0,252)" stroke-width="1" opacity="1" d="M 167.5 141 L 176 141.5 L 168.5 142 Q 166.8 145.5 161 144 Q 159.6 140 166.5 142 L 167.5 141 Z " /><path fill="rgb(174,0,252)" stroke="rgb(174,0,252)" stroke-width="1" opacity="1" d="M 178 144 L 180 144.5 L 180 168 L 178 167.5 L 178 144 Z " /><path fill="rgb(174,0,252)" stroke="rgb(174,0,252)" stroke-width="1" opacity="1" d="M 128.5 151 L 129 158.5 L 128 159.5 L 128 172 L 130 172 L 130.5 176 L 178.5 176 L 179 178 Q 172.4 176.3 170.5 180 L 128 180 L 127.5 178 L 126 178.5 L 126 159.5 L 125 153 Q 121 151.6 123 158.5 L 122 158.5 L 122 152 L 126 152 L 126 158.5 L 128 159 L 128.5 151 Z " /><path fill="rgb(174,0,252)" stroke="rgb(174,0,252)" stroke-width="1" opacity="1" d="M 120.5 152 L 120 153.5 L 119.5 156 L 119 153.5 L 120.5 152 Z " /><path fill="rgb(174,0,252)" stroke="rgb(174,0,252)" stroke-width="1" opacity="1" d="M 120 160 L 122 160.5 L 122 175 L 120 174.5 L 120 160 Z " /><path fill="rgb(174,0,249)" stroke="rgb(174,0,249)" stroke-width="1" opacity="1" d="M 180.5 34 L 183 35.5 L 181 41.5 L 181 70.5 L 182 71.5 L 182 79.5 L 179 81.5 L 180 80.5 L 180 72 L 178 72 L 178 79.5 L 177.5 80 L 130 80 Q 131.3 74.7 128 75.5 L 128 63.5 Q 130.8 61.8 129 55.5 L 129 53.5 L 128 49 L 136 46 Q 134.9 48.7 137.5 48 L 137.5 46 L 139.5 47 L 141 46.5 L 140.5 48 Q 145.3 49.3 144 46 Q 141 47 142 44 L 145.5 46 L 150.5 46 L 152 43.5 L 151 41.5 L 154.5 40 L 154.5 41 Q 151.2 39.9 152 42.5 Q 153.3 45.3 158.5 44 L 160 43.5 Q 159.3 47.3 161.5 48 L 166.5 48 L 168.5 46 Q 174.5 47.5 176 44.5 L 174.5 42 L 169 41.5 L 174.5 41 L 176 41.5 L 177 39.5 L 172.5 39 L 167 40.5 L 167.5 42 L 160.5 42 L 160 40.5 L 165.5 38 L 176.5 38 L 178.5 37 L 182 38 Q 183.5 34.2 180.5 35 L 180.5 34 Z M 176 46 L 169 48 L 176 48 L 176 46 Z M 178 48 L 178 64 L 180 64 L 180 49 L 178 48 Z " /><path fill="rgb(174,0,249)" stroke="rgb(174,0,249)" stroke-width="1" opacity="1" d="M 276.5 34 L 279 35.5 L 277 41.5 L 277 70.5 L 278 71.5 L 278 79.5 L 275.5 83 L 275 81.5 L 276 80.5 L 276 72 L 274 72 L 274 79.5 L 273.5 80 L 225.5 80 L 224 78.5 L 224 63.5 Q 226.8 61.8 225 55.5 L 225 53.5 L 224 49 L 232 46 Q 230.9 48.7 233.5 48 L 233.5 46 L 235.5 47 L 237 46.5 L 236.5 48 Q 241.3 49.3 240 46 Q 237 47 238 44 L 241.5 46 L 246.5 46 L 248 43.5 L 247 41.5 L 250.5 40 L 250.5 41 Q 247.2 39.9 248 42.5 Q 249.3 45.3 254.5 44 L 256 43.5 Q 255.3 47.3 257.5 48 L 262.5 48 L 264.5 46 Q 270.5 47.5 272 44.5 L 270.5 42 L 265 41.5 L 270.5 41 L 272 41.5 L 273 39.5 L 268.5 39 L 263 40.5 L 263.5 42 L 256.5 42 L 256 40.5 L 261.5 38 L 272.5 38 L 274.5 37 L 278 38 Q 279.5 34.2 276.5 35 L 276.5 34 Z M 272 46 L 265 48 L 272 48 L 272 46 Z M 274 48 L 274 64 L 276 64 L 276 49 L 274 48 Z " /><path fill="rgb(174,0,249)" stroke="rgb(174,0,249)" stroke-width="1" opacity="1" d="M 86.5 36 L 87 37.5 L 85 41.5 L 85 78.5 L 85.5 80 Q 83.3 79.3 84 81.5 L 83 81.5 L 82.5 80 L 34 80 Q 35.3 74.7 32 75.5 L 32 63.5 Q 34.8 61.8 33 55.5 L 33 53.5 L 32 49.5 L 42.5 47 L 44 47.5 Q 43.3 44.9 46 46 L 46.5 48 L 47 46 L 54.5 46 L 56 44.5 L 55 41.5 L 58.5 40 L 58.5 41 Q 55.2 39.9 56 42.5 Q 57.6 45.5 63 44 L 65.5 39 L 82.5 37 L 86 38 L 86.5 36 Z M 77 39 L 76 40 Q 70 39 71 42 L 64 42 L 64 45 L 79 46 L 80 44 Q 79 41 74 42 L 74 41 Q 78 40 80 42 L 81 40 L 77 39 Z M 65 46 L 65 48 L 71 48 L 71 46 L 65 46 Z M 80 46 L 73 48 L 80 48 L 80 46 Z M 82 48 L 82 72 L 84 72 L 84 49 L 82 48 Z " /><path fill="rgb(174,0,249)" stroke="rgb(174,0,249)" stroke-width="1" opacity="1" d="M 64.5 37 L 68 37.5 L 60.5 40 L 60.5 39 L 64.5 37 Z " /><path fill="rgb(174,0,249)" stroke="rgb(174,0,249)" stroke-width="1" opacity="1" d="M 160.5 37 L 164 37.5 L 156.5 40 L 156.5 39 L 160.5 37 Z " /><path fill="rgb(174,0,249)" stroke="rgb(174,0,249)" stroke-width="1" opacity="1" d="M 256.5 37 L 260 37.5 L 252.5 40 L 252.5 39 L 256.5 37 Z " /><path fill="rgb(174,0,249)" stroke="rgb(174,0,249)" stroke-width="1" opacity="1" d="M 86.5 48 L 87 71.5 L 86 71.5 L 86.5 48 Z " /><path fill="rgb(174,0,249)" stroke="rgb(174,0,249)" stroke-width="1" opacity="1" d="M 182.5 48 L 183 63.5 L 182 63.5 L 182.5 48 Z " /><path fill="rgb(174,0,249)" stroke="rgb(174,0,249)" stroke-width="1" opacity="1" d="M 278.5 48 L 279 63.5 L 278 63.5 L 278.5 48 Z " /><path fill="rgb(174,0,249)" stroke="rgb(174,0,249)" stroke-width="1" opacity="1" d="M 28.5 52 L 27.5 54 L 28.5 52 Z " /><path fill="rgb(174,0,249)" stroke="rgb(174,0,249)" stroke-width="1" opacity="1" d="M 124.5 52 L 123.5 54 L 124.5 52 Z " /><path fill="rgb(174,0,249)" stroke="rgb(174,0,249)" stroke-width="1" opacity="1" d="M 220.5 52 L 219.5 54 L 220.5 52 Z " /><path fill="rgb(174,0,249)" stroke="rgb(174,0,249)" stroke-width="1" opacity="1" d="M 25.5 54 L 23 57.5 L 22.5 73 L 22 57.5 L 25.5 54 Z " /><path fill="rgb(174,0,249)" stroke="rgb(174,0,249)" stroke-width="1" opacity="1" d="M 121.5 54 L 119 57.5 L 118.5 80 L 118 57.5 L 121.5 54 Z " /><path fill="rgb(174,0,249)" stroke="rgb(174,0,249)" stroke-width="1" opacity="1" d="M 217.5 54 L 215 57.5 L 214.5 81 L 214 57.5 L 217.5 54 Z " /><path fill="rgb(174,0,249)" stroke="rgb(174,0,249)" stroke-width="1" opacity="1" d="M 27 57 Q 31 55.6 29 62.5 L 30 63.5 L 30 81.5 L 28.5 81 L 24 79.5 L 26 79 L 26 63.5 L 27 57 Z " /><path fill="rgb(174,0,249)" stroke="rgb(174,0,249)" stroke-width="1" opacity="1" d="M 123 57 Q 127 55.6 125 62.5 L 126 63.5 L 126 81.5 L 124.5 81 L 121 79.5 L 122 78.5 L 122 63.5 L 123 57 Z " /><path fill="rgb(174,0,249)" stroke="rgb(174,0,249)" stroke-width="1" opacity="1" d="M 219 57 Q 223 55.6 221 62.5 L 222 63.5 L 222 80 L 218 79.5 L 218 63.5 L 219 57 Z " /><path fill="rgb(174,0,249)" stroke="rgb(174,0,249)" stroke-width="1" opacity="1" d="M 22.5 80 L 24 84.5 L 22 85 L 22.5 80 Z " /><path fill="rgb(174,0,249)" stroke="rgb(174,0,249)" stroke-width="1" opacity="1" d="M 76.5 82 Q 81.8 80.3 80 85.5 L 78.5 85 Q 73 83.5 71.5 86 L 48.5 86 Q 46.8 83.2 40.5 85 L 36.5 86 L 32.5 86 L 27 84.5 L 29.5 83 L 30 85 L 33.5 84 L 74.5 84 L 76.5 82 Z " /><path fill="rgb(174,0,249)" stroke="rgb(174,0,249)" stroke-width="1" opacity="1" d="M 172.5 82 L 177 82.5 L 175.5 86 Q 174 83.5 168.5 85 L 167.5 86 L 144.5 86 Q 142.7 83.2 136.5 85 L 132.5 86 L 128.5 86 L 123 84.5 L 125.5 83 L 126 85 L 129.5 84 L 170.5 84 L 172.5 82 Z " /><path fill="rgb(174,0,249)" stroke="rgb(174,0,249)" stroke-width="1" opacity="1" d="M 84.5 83 L 86 86 L 84 85.5 L 84.5 83 Z " /><path fill="rgb(174,0,249)" stroke="rgb(174,0,249)" stroke-width="1" opacity="1" d="M 180.5 83 L 182 86 L 180 85.5 L 180.5 83 Z " /><path fill="rgb(174,0,249)" stroke="rgb(174,0,249)" stroke-width="1" opacity="1" d="M 214.5 83 L 215.5 85 Q 212.7 85.7 214.5 83 Z " /><path fill="rgb(174,0,249)" stroke="rgb(174,0,249)" stroke-width="1" opacity="1" d="M 221.5 83 L 221.5 86 L 217 85.5 L 221.5 83 Z " /><path fill="rgb(174,0,249)" stroke="rgb(174,0,249)" stroke-width="1" opacity="1" d="M 267.5 83 L 272 84 L 271.5 86 L 264.5 86 Q 262.8 83.2 256.5 85 Q 254.8 87.8 248.5 86 Q 246.8 83.2 240.5 85 Q 238.7 87.8 232.5 86 Q 231.3 83.8 226.5 85 L 224.5 86 L 224.5 85 L 226.5 84 L 266.5 84 L 267.5 83 Z " /><path fill="rgb(174,0,249)" stroke="rgb(174,0,249)" stroke-width="1" opacity="1" d="M 276 84 L 278 84.5 L 276 85.5 L 276 84 Z " /><path fill="rgb(174,0,249)" stroke="rgb(174,0,249)" stroke-width="1" opacity="1" d="M 177.5 131 L 179 134 Q 182.8 135.5 182 132.5 L 183 132.5 L 181 137.5 L 181 175.5 L 179.5 179 L 179 176 L 130.5 176 L 130 172 L 128 171.5 L 128 159.5 Q 130.8 157.8 129 151.5 L 129 149.5 L 128.5 147 L 127 147.5 L 128 145 L 137.5 144 L 142 142 L 144.5 138 L 145 139.5 Q 142.8 140.8 145.5 142 Q 150.8 143.3 152 140.5 L 151 138.5 L 153.5 140 Q 158.3 141.2 159.5 139 L 160 141 L 167 141.5 L 161 142 Q 159.6 146 166.5 144 L 168.5 142 L 176 142 L 176 138 L 169.5 138 L 169.5 137 Q 177.1 138.5 176 135 Q 170.3 134.1 167 136.5 L 167.5 138 L 160.5 138 L 160 135 L 158.5 135 L 156.5 136 L 156.5 135 L 163.5 133 L 169.5 135 L 170.5 134 L 177 134 L 177.5 131 Z M 170 143 L 170 144 L 176 144 L 170 143 Z M 178 144 L 178 168 L 180 168 L 180 145 L 178 144 Z " /><path fill="rgb(174,0,249)" stroke="rgb(174,0,249)" stroke-width="1" opacity="1" d="M 152.5 136 L 155 136.5 L 152.5 137 L 152.5 136 Z " /><path fill="rgb(174,0,249)" stroke="rgb(174,0,249)" stroke-width="1" opacity="1" d="M 182.5 144 L 183 167.5 L 182 167.5 L 182.5 144 Z " /><path fill="rgb(174,0,249)" stroke="rgb(174,0,249)" stroke-width="1" opacity="1" d="M 124.5 147 L 125 148.5 L 123 149.5 L 124.5 147 Z " /><path fill="rgb(174,0,249)" stroke="rgb(174,0,249)" stroke-width="1" opacity="1" d="M 121.5 150 L 119 153.5 L 119 179.5 L 120 180.5 L 118 181 L 118 153.5 L 121.5 150 Z " /><path fill="rgb(174,0,249)" stroke="rgb(174,0,249)" stroke-width="1" opacity="1" d="M 123 153 Q 127 151.6 125 158.5 L 126 159.5 L 126 176 L 122 175.5 L 122 159.5 L 123 153 Z " /><path fill="rgb(174,0,249)" stroke="rgb(174,0,249)" stroke-width="1" opacity="1" d="M 125.5 179 L 126 181.5 L 124.5 181 L 123 180.5 L 125.5 179 Z " /><path fill="rgb(174,0,249)" stroke="rgb(174,0,249)" stroke-width="1" opacity="1" d="M 171.5 179 L 176 180 L 175.5 182 L 168.5 182 Q 166.8 179.3 160.5 181 Q 158.8 183.7 152.5 182 Q 150.8 179.3 144.5 181 Q 142.7 183.7 136.5 182 L 128 180.5 L 170.5 180 L 171.5 179 Z " /><path fill="rgb(174,0,249)" stroke="rgb(174,0,249)" stroke-width="1" opacity="1" d="M 180 180 L 182 180.5 L 180 181.5 L 180 180 Z " /></svg>